<svg xmlns="http://www.w3.org/2000/svg" xmlns:xlink="http://www.w3.org/1999/xlink" version="1.1" x="0px" y="0px" viewBox="0 0 461.8 375.3" enable-background="new 0 0 461.8 375.3" xml:space="preserve" style="fill: rgb(0, 0, 0);">
<g id="__id463_sxstljyogo">
	<path d="M461.8,44.4c-17,7.5-35.2,12.6-54.4,14.9C426.9,47.6,441.9,29,449,6.9c-18.3,10.9-38.6,18.7-60.2,23   C371.6,11.5,347,0,319.7,0C267.4,0,225,42.4,225,94.7c0,7.4,0.8,14.7,2.5,21.6c-78.7-4-148.5-41.7-195.3-99   C24,31.3,19.3,47.6,19.3,65c0,32.9,16.7,61.9,42.1,78.9c-15.5-0.5-30.1-4.8-42.9-11.9c0,0.4,0,0.8,0,1.2c0,45.9,32.7,84.2,76,92.9   c-7.9,2.2-16.3,3.3-25,3.3c-6.1,0-12-0.6-17.8-1.7c12.1,37.6,47,65,88.5,65.8C107.8,318.9,67,334,22.6,334   c-7.6,0-15.2-0.4-22.6-1.3c41.9,26.9,91.7,42.6,145.2,42.6c174.3,0,269.5-144.4,269.5-269.6c0-4.1-0.1-8.2-0.3-12.3   C433,80.1,449.1,63.4,461.8,44.4z" style="fill: rgb(128, 100, 86);"></path>
</g>
</svg>